<?xml version="1.0" encoding="UTF-8" standalone="no"?>
<!DOCTYPE svg PUBLIC "-//W3C//DTD SVG 1.1//EN" "http://www.w3.org/Graphics/SVG/1.1/DTD/svg11.dtd">
<svg width="2000px" height="2000px" version="1.1" xmlns="http://www.w3.org/2000/svg" xmlns:xlink="http://www.w3.org/1999/xlink" xml:space="preserve" xmlns:serif="http://www.serif.com/" style="fill-rule:evenodd;clip-rule:evenodd;stroke-linejoin:round;stroke-miterlimit:2;">
    <g transform="matrix(1,0,0,1,-4427.89,0)">
        <g id="Artboard3" transform="matrix(1,0,0,1,11.558,0)">
            <rect x="4416.33" y="0" width="2000" height="2000" style="fill:none;"/>
            <clipPath id="_clip1">
                <rect x="4416.33" y="0" width="2000" height="2000"/>
            </clipPath>
            <g clip-path="url(#_clip1)">
                <g transform="matrix(2.77782,0,0,2.77782,4416.33,0)">
                    <g transform="matrix(0.999984,0,0,0.999984,0,0)">
                        <path d="M0,0L720,0L720,720L0,720L0,0Z" style="fill:rgb(0,181,163);"/>
                    </g>
                    <g transform="matrix(0.359994,0,0,0.3566,-1589.74,6.78815)">
                        <rect x="4416.03" y="932.721" width="2000" height="1067.31" style="fill:rgb(129,152,178);"/>
                    </g>
                    <path d="M28.8,23.544L202.536,23.544L202.536,331.704L28.8,331.704L28.8,23.544Z" style="fill:rgb(222,82,51);"/>
                    <g transform="matrix(0.999984,0,0,1,0,0)">
                        <path d="M0,321.048L720,321.048L720,350.784L0,350.784L0,321.048Z" style="fill:rgb(0,106,121);"/>
                    </g>
                    <path d="M45.144,38.376L186.264,38.376L186.264,316.8L45.144,316.8L45.144,38.376Z" style="fill:rgb(207,194,178);"/>
                    <path d="M186.264,48.096L186.264,316.8L58.896,316.8L58.896,48.096L186.264,48.096Z" style="fill:rgb(255,240,220);"/>
                    <path d="M186.264,182.16L186.264,195.696L54.936,195.696L54.936,182.16L186.264,182.16Z" style="fill:rgb(207,194,178);"/>
                    <path d="M41.544,169.92L186.264,169.92L186.264,185.256L41.544,185.256L41.544,169.92Z" style="fill:rgb(222,82,51);"/>
                    <g transform="matrix(1,0,0,1,0.564822,0)">
                        <path d="M420.408,38.376L719.424,38.376L719.424,217.44L420.408,217.44L420.408,38.376Z" style="fill:rgb(222,82,51);"/>
                    </g>
                    <g transform="matrix(1.00202,0,0,1,-0.890115,0)">
                        <path d="M440.136,56.16L719.424,56.16L719.424,199.656L440.136,199.656L440.136,56.16Z" style="fill:rgb(207,194,178);"/>
                    </g>
                    <g transform="matrix(1,0,0,1,0.564822,0)">
                        <path d="M719.424,64.872L719.424,199.656L450.648,199.656L450.648,64.872L719.424,64.872Z" style="fill:rgb(255,240,220);"/>
                    </g>
                    <path d="M667.728,62.424L667.728,199.656L654.84,199.656L654.84,62.424L667.728,62.424Z" style="fill:rgb(207,194,178);"/>
                    <g transform="matrix(1,0,0,1.05914,0,-7.87546)">
                        <path d="M637.992,56.16L657.72,56.16L657.72,199.656L637.992,199.656L637.992,56.16Z" style="fill:rgb(222,82,51);"/>
                    </g>
                    <path d="M522.648,401.256L500.04,720L486,720L508.608,400.968C508.752,398.808 510.624,397.152 512.784,397.152L518.976,397.296C521.136,397.296 522.792,399.096 522.648,401.256Z" style="fill:rgb(172,74,52);"/>
                    <path d="M634.68,396.72L651.024,720L637.056,720L620.784,398.16C620.64,396.072 622.296,394.128 624.456,393.912L630.576,393.264C632.736,393.048 634.608,394.632 634.68,396.72Z" style="fill:rgb(172,74,52);"/>
                    <path d="M547.488,396.36L524.52,720L510.552,720L533.52,396.072C533.664,393.912 535.536,392.256 537.696,392.256L543.816,392.4C545.976,392.4 547.632,394.2 547.488,396.36Z" style="fill:rgb(172,74,52);"/>
                    <path d="M658.584,398.592L674.856,720L660.888,720L644.688,400.032C644.544,397.872 646.2,395.928 648.36,395.712L654.48,395.064C656.64,394.848 658.44,396.432 658.584,398.592Z" style="fill:rgb(172,74,52);"/>
                    <path d="M496.656,386.424L658.728,386.424C662.472,386.424 665.496,389.448 665.496,393.192L665.496,404.064C665.496,407.808 662.472,410.904 658.728,410.904L496.656,410.904C492.912,410.904 489.816,407.808 489.816,404.064L489.816,393.192C489.816,389.448 492.912,386.424 496.656,386.424Z" style="fill:rgb(172,74,52);"/>
                    <path d="M705.024,249.192L665.208,406.296C664.272,409.896 660.528,412.128 656.928,411.192L646.416,408.528C642.816,407.592 640.584,403.92 641.52,400.248L681.336,243.216C682.272,239.544 685.944,237.312 689.616,238.248L700.128,240.912C703.728,241.848 705.96,245.592 705.024,249.192Z" style="fill:rgb(172,74,52);"/>
                    <path d="M237.96,413.712L259.632,720L273.672,720L251.928,413.424C251.784,411.336 249.912,409.608 247.752,409.68L241.56,409.752C239.4,409.824 237.816,411.552 237.96,413.712Z" style="fill:rgb(172,74,52);"/>
                    <path d="M125.856,409.248L110.16,720L124.128,720L139.824,410.688C139.896,408.528 138.24,406.584 136.08,406.368L129.96,405.72C127.8,405.504 126,407.088 125.856,409.248Z" style="fill:rgb(172,74,52);"/>
                    <path d="M101.952,411.048L86.328,720L100.368,720L115.92,412.488C115.992,410.328 114.336,408.384 112.176,408.168L106.056,407.592C103.896,407.304 102.096,408.888 101.952,411.048Z" style="fill:rgb(172,74,52);"/>
                    <path d="M263.88,398.88L101.88,398.88C98.136,398.88 95.04,401.976 95.04,405.72L95.04,416.52C95.04,420.264 98.136,423.36 101.88,423.36L263.88,423.36C267.624,423.36 270.72,420.264 270.72,416.52L270.72,405.72C270.72,401.976 267.624,398.88 263.88,398.88Z" style="fill:rgb(172,74,52);"/>
                    <path d="M55.512,261.72L95.328,418.752C96.264,422.352 100.008,424.584 103.608,423.72L114.12,421.056C117.792,420.12 120.024,416.376 119.088,412.704L79.272,255.672C78.336,252 74.592,249.84 70.92,250.704L60.48,253.368C56.808,254.304 54.576,258.048 55.512,261.72Z" style="fill:rgb(172,74,52);"/>
                    <g id="_926520120">
                        <path d="M537.264,550.296C536.472,532.8 542.088,528.552 554.256,537.552C563.832,504.216 573.264,504.648 582.48,538.92C590.76,511.92 597.672,496.44 603.144,492.48C609.192,485.28 618.048,500.544 629.568,538.2C638.856,503.928 648.288,503.496 657.864,536.904C669.96,527.832 675.648,532.08 674.856,549.576C689.688,512.64 694.296,514.872 688.464,556.272C706.824,547.2 716.112,545.904 716.328,552.24C712.728,570.528 677.232,576.648 609.768,570.672C537.48,577.8 499.464,571.896 495.792,552.96C495.936,546.624 505.224,547.92 523.584,556.92C517.824,515.52 522.36,513.288 537.264,550.296Z" style="fill:rgb(19,184,110);"/>
                        <path d="M563.04,571.104C562.464,553.608 566.568,549.36 575.424,558.432C582.336,525.024 589.248,525.528 595.944,559.728C602.352,530.928 607.68,515.232 611.784,512.64L611.784,512.568L611.928,512.568C612.144,512.424 612.432,512.352 612.648,512.28L612.648,512.928C616.752,515.448 622.008,531.144 628.416,560.016C635.184,525.744 642.024,525.312 649.008,558.648C657.864,549.576 661.968,553.824 661.392,571.32C672.192,534.384 679.248,529.2 675.072,570.6C688.392,561.6 691.344,567.648 691.488,573.984C687.528,602.136 537.336,605.376 532.872,573.768C533.016,567.432 536.04,561.384 549.36,570.384C545.184,528.984 552.24,534.168 563.04,571.104Z" style="fill:rgb(0,154,90);"/>
                    </g>
                    <path d="M711.864,590.04L711.864,690.048C711.864,700.416 710.568,710.496 708.192,720L509.616,720C507.24,710.496 505.944,700.416 505.944,690.048C505.944,689.112 506.016,688.176 506.016,687.312C506.016,686.88 505.944,686.52 505.944,686.088L505.944,590.04C505.944,578.808 514.512,569.592 524.952,569.592L692.928,569.592C703.368,569.592 711.864,578.808 711.864,590.04Z" style="fill:rgb(126,54,38);"/>
                    <path d="M505.944,607.824L505.944,596.664C505.944,587.592 508.752,579.456 513.072,574.128L704.808,574.128C709.128,579.456 711.864,587.592 711.864,596.664L711.864,607.968C711.504,608.04 711.072,608.112 710.64,608.112L507.6,608.112C507.024,608.112 506.52,607.968 505.944,607.824Z" style="fill:rgb(102,44,31);"/>
                    <path d="M507.6,568.8L710.64,568.8C714.6,568.8 717.84,572.04 717.84,576L717.84,585.576C717.84,589.536 714.6,592.776 710.64,592.776L507.6,592.776C503.64,592.776 500.4,589.536 500.4,585.576L500.4,576C500.4,572.04 503.64,568.8 507.6,568.8Z" style="fill:rgb(140,60,42);"/>
                    <path d="M213.12,408.816L235.152,720L249.12,720L227.088,408.528C226.944,406.44 225.072,404.712 222.912,404.784L216.72,404.856C214.56,404.928 212.904,406.656 213.12,408.816Z" style="fill:rgb(172,74,52);"/>
                    <path d="M367.992,720C340.488,704.232 313.632,683.208 287.424,656.928C281.016,659.232 276.624,663.408 274.248,669.312C282.312,677.88 290.376,687.024 298.584,696.744C307.296,689.616 312.984,691.704 315.792,702.936C316.368,707.256 316.656,709.344 316.656,709.344L341.352,720L367.992,720Z" style="fill:rgb(0,37,76);"/>
                    <path d="M361.296,695.448C372.888,700.704 381.024,708.912 385.632,720L362.448,720L330.912,707.04C314.496,684.792 299.952,668.088 287.424,656.928C293.616,648.792 303.336,639.864 316.44,630.216C326.016,640.656 339.336,650.376 356.256,659.52C362.232,675.144 363.888,687.096 361.296,695.448Z" style="fill:rgb(255,177,56);"/>
                    <path d="M171.504,354.456C188.568,347.904 207.864,356.472 214.344,373.536L275.184,532.08C276.336,535.104 276.984,538.128 277.272,541.224C278.856,544.032 280.08,547.128 280.8,550.44L317.808,716.184C318.096,717.48 318.24,718.704 318.384,720L250.704,720L216.072,564.84C215.784,563.4 215.496,561.888 215.424,560.448C214.56,559.008 213.84,557.496 213.192,555.84L152.424,397.296C145.944,380.232 154.512,360.936 171.504,354.456Z" style="fill:rgb(0,139,137);"/>
                    <path d="M252.72,172.8C238.32,178.56 219.816,176.184 197.064,165.6C156.312,176.904 137.952,195.768 141.84,222.264C140.184,322.632 145.584,381.456 158.112,398.88C196.776,400.176 239.328,391.32 285.84,372.456C295.416,252.432 284.4,185.832 252.72,172.8Z" style="fill:rgb(255,176,56);"/>
                    <path d="M256.752,174.816L272.376,182.664C297.936,195.408 332.712,261.144 345.888,281.304C346.392,282.024 360.432,304.128 361.656,303.12C380.304,288.288 386.136,276.48 404.568,256.968C414.936,258.552 421.128,264.672 423.216,275.4C386.568,321.12 373.752,353.736 336.024,355.896C277.92,315.288 293.976,220.32 256.752,174.816Z" style="fill:rgb(255,176,56);"/>
                    <path d="M247.464,380.088C256.032,363.96 276.264,357.768 292.32,366.336L435.168,442.368C438.552,443.088 441.936,444.456 445.104,446.544C459.216,455.976 464.184,475.848 456.048,490.824L375.84,638.928C367.776,653.904 349.56,658.512 335.376,649.152C321.264,639.72 316.368,619.848 324.432,604.872L385.92,491.328L295.704,443.304C268.488,429.12 253.656,437.904 251.28,469.8C226.512,438.84 214.128,423.36 214.128,423.36C223.056,404.136 232.92,393.84 243.72,392.544C244.152,388.296 245.376,384.048 247.464,380.088Z" style="fill:rgb(0,139,137);"/>
                    <path d="M247.032,415.944C206.496,439.848 148.176,429.84 124.2,389.16C100.224,348.48 119.592,292.68 160.2,268.704C199.44,245.592 196.2,271.152 258.984,234.144C289.728,216 314.784,234.792 332.928,265.608C351.072,296.352 355.392,327.384 324.648,345.528C261.432,382.752 287.496,392.112 247.032,415.944Z" style="fill:rgb(142,98,85);"/>
                    <path d="M467.352,174.24L478.512,193.104L283.968,307.8C283.464,304.128 282.312,300.528 280.296,297.216C278.352,293.832 275.76,291.096 272.88,288.936L467.352,174.24Z" style="fill:rgb(255,218,175);"/>
                    <path d="M280.296,297.216C288.144,310.536 283.752,327.672 270.432,335.52C257.112,343.368 239.976,338.976 232.128,325.656C224.28,312.336 228.672,295.128 241.992,287.28C255.312,279.432 272.448,283.896 280.296,297.216Z" style="fill:rgb(255,176,56);"/>
                    <path d="M275.112,300.312C281.232,310.752 277.776,324.144 267.336,330.336C256.896,336.456 243.504,333 237.312,322.56C231.192,312.12 234.648,298.656 245.088,292.536C255.528,286.344 268.92,289.872 275.112,300.312Z" style="fill:rgb(85,70,63);"/>
                    <path d="M200.592,322.488L219.6,354.672C220.248,355.896 219.888,357.408 218.736,358.056L212.976,361.44C211.824,362.16 210.312,361.728 209.592,360.576L190.656,328.392C189.936,327.24 190.296,325.728 191.52,325.008L197.208,321.624C198.432,320.904 199.944,321.336 200.592,322.488Z" style="fill:white;"/>
                    <path d="M511.488,148.968L522,166.896C522.936,168.48 522.432,170.568 520.848,171.504L482.832,193.896C481.176,194.832 479.16,194.328 478.152,192.744L467.64,174.816C466.704,173.232 467.208,171.144 468.864,170.208L506.808,147.816C508.464,146.808 510.552,147.384 511.488,148.968Z" style="fill:rgb(255,104,45);"/>
                    <path d="M467.496,174.528L478.368,192.96C478.44,193.032 478.368,193.176 478.296,193.248L477.36,193.752C477.288,193.824 477.144,193.824 477.144,193.68L466.272,175.248C466.2,175.176 466.2,175.032 466.272,175.032L467.208,174.456C467.352,174.384 467.424,174.456 467.496,174.528Z" style="fill:white;"/>
                    <path d="M506.16,162.216C506.664,163.08 506.376,164.16 505.512,164.736C504.576,165.24 503.496,164.952 502.92,164.088C502.416,163.152 502.704,162.072 503.64,161.496C504.504,160.992 505.656,161.28 506.16,162.216Z" style="fill:rgb(230,230,230);"/>
                    <path d="M493.632,165.528C494.136,166.32 493.848,167.328 493.056,167.76C492.264,168.264 491.256,167.976 490.824,167.184C490.32,166.392 490.608,165.384 491.4,164.952C492.192,164.448 493.2,164.736 493.632,165.528Z" style="fill:rgb(230,230,230);"/>
                    <path d="M478.08,170.496C478.584,171.288 478.296,172.296 477.504,172.8C476.712,173.232 475.704,172.944 475.272,172.152C474.768,171.432 475.056,170.424 475.848,169.92C476.64,169.488 477.648,169.704 478.08,170.496Z" style="fill:rgb(230,230,230);"/>
                    <path d="M475.056,172.08L475.344,172.44L199.512,335.016L199.224,334.656L475.056,172.08Z" style="fill:rgb(230,230,230);"/>
                    <path d="M475.272,171.936L475.56,172.296L475.632,172.512L475.416,172.656L199.584,335.232L199.368,335.376L199.296,335.16L199.008,334.728L198.936,334.512L199.152,334.44L474.984,171.864L475.2,171.72L475.272,171.936Z" style="fill:white;fill-rule:nonzero;"/>
                    <path d="M490.68,167.04L490.896,167.472L201.168,338.256L200.88,337.896L490.68,167.04Z" style="fill:rgb(230,230,230);"/>
                    <path d="M490.896,166.896L491.112,167.328L491.256,167.544L491.04,167.688L201.24,338.472L201.024,338.616L200.952,338.4L200.664,337.968L200.592,337.752L200.808,337.68L490.608,166.824L490.752,166.68L490.896,166.896Z" style="fill:white;fill-rule:nonzero;"/>
                    <path d="M502.632,164.016L502.848,164.448L203.04,341.136L202.824,340.704L502.632,164.016Z" style="fill:rgb(230,230,230);"/>
                    <path d="M502.848,163.872L503.064,164.304L503.208,164.52L502.992,164.592L203.184,341.352L202.968,341.424L202.824,341.208L202.608,340.848L202.536,340.632L202.752,340.488L502.488,163.8L502.704,163.656L502.848,163.872Z" style="fill:white;fill-rule:nonzero;"/>
                    <path d="M512.712,162.576C512.208,161.712 511.056,161.424 510.192,161.928C509.256,162.432 508.968,163.584 509.544,164.448C510.048,165.312 511.2,165.6 512.064,165.096C512.928,164.592 513.216,163.44 512.712,162.576Z" style="fill:rgb(230,230,230);"/>
                    <path d="M499.392,174.744C498.888,173.952 497.88,173.736 497.16,174.168C496.368,174.672 496.08,175.68 496.512,176.472C497.016,177.264 498.024,177.48 498.816,177.048C499.608,176.544 499.824,175.536 499.392,174.744Z" style="fill:rgb(230,230,230);"/>
                    <path d="M486.936,185.472C486.432,184.68 485.424,184.464 484.632,184.896C483.912,185.4 483.624,186.408 484.056,187.2C484.56,187.92 485.568,188.208 486.36,187.776C487.152,187.272 487.368,186.264 486.936,185.472Z" style="fill:rgb(230,230,230);"/>
                    <path d="M484.128,187.344L483.912,186.984L208.08,349.56L208.296,349.992L484.128,187.344Z" style="fill:rgb(230,230,230);"/>
                    <path d="M484.128,186.84L484.344,187.272L484.488,187.488L484.272,187.56L208.44,350.208L208.224,350.28L208.08,350.064L207.864,349.704L207.72,349.488L207.936,349.344L483.768,186.768L483.984,186.624L484.128,186.84Z" style="fill:white;fill-rule:nonzero;"/>
                    <path d="M496.584,176.616L496.368,176.256L206.568,347.04L206.784,347.4L496.584,176.616Z" style="fill:rgb(230,230,230);"/>
                    <path d="M496.584,176.112L496.8,176.472L496.944,176.688L496.728,176.832L206.928,347.616L206.712,347.76L206.568,347.544L206.352,347.184L206.208,346.968L206.424,346.824L496.224,176.04L496.44,175.896L496.584,176.112Z" style="fill:white;fill-rule:nonzero;"/>
                    <path d="M509.4,164.736L509.184,164.376L204.624,343.872L204.84,344.232L509.4,164.736Z" style="fill:rgb(230,230,230);"/>
                    <path d="M509.4,164.232L509.616,164.592L509.76,164.808L509.544,164.952L204.984,344.448L204.768,344.592L204.624,344.376L204.408,343.944L204.264,343.728L204.48,343.656L509.04,164.16L509.256,164.016L509.4,164.232Z" style="fill:white;fill-rule:nonzero;"/>
                    <path d="M475.488,163.224L476.424,164.736C476.64,165.168 476.496,165.672 476.136,165.888L471.528,168.552C471.168,168.84 470.592,168.696 470.376,168.264L469.44,166.752C469.224,166.32 469.368,165.816 469.8,165.6L474.336,162.864C474.768,162.648 475.272,162.792 475.488,163.224Z" style="fill:rgb(230,230,230);"/>
                    <path d="M489.528,154.944L490.392,156.456C490.68,156.888 490.536,157.392 490.104,157.68L485.568,160.344C485.136,160.56 484.632,160.416 484.344,160.056L483.48,158.472C483.264,158.112 483.336,157.536 483.768,157.32L488.304,154.656C488.736,154.44 489.24,154.512 489.528,154.944Z" style="fill:rgb(230,230,230);"/>
                    <path d="M499.752,148.896L500.616,150.48C500.904,150.84 500.76,151.344 500.328,151.632L495.792,154.296C495.36,154.512 494.856,154.44 494.64,154.008L493.704,152.496C493.488,152.064 493.632,151.56 493.992,151.272L498.6,148.608C498.96,148.392 499.464,148.536 499.752,148.896Z" style="fill:rgb(230,230,230);"/>
                    <path d="M492.192,191.52L491.328,190.008C491.04,189.576 490.536,189.432 490.104,189.72L485.568,192.384C485.136,192.6 485.064,193.176 485.28,193.536L486.144,195.048C486.432,195.48 486.936,195.624 487.368,195.408L491.904,192.672C492.336,192.456 492.408,191.952 492.192,191.52Z" style="fill:rgb(230,230,230);"/>
                    <path d="M506.232,183.24L505.296,181.728C505.08,181.368 504.504,181.224 504.144,181.44L499.536,184.104C499.176,184.392 499.032,184.896 499.248,185.328L500.184,186.84C500.4,187.2 500.904,187.344 501.336,187.128L505.872,184.464C506.304,184.176 506.448,183.672 506.232,183.24Z" style="fill:rgb(230,230,230);"/>
                    <path d="M521.712,174.096L520.848,172.584C520.632,172.152 520.056,172.008 519.696,172.296L515.088,174.96C514.728,175.176 514.584,175.752 514.8,176.112L515.736,177.696C515.952,178.056 516.456,178.2 516.888,177.984L521.424,175.248C521.856,175.032 522,174.528 521.712,174.096Z" style="fill:rgb(230,230,230);"/>
                    <path d="M207.72,74.16L203.4,106.488C202.824,112.824 202.608,119.088 202.824,125.208C202.896,125.496 202.896,125.784 202.968,126.072C202.896,126.36 202.896,126.72 202.896,127.152C204.12,144.36 208.728,161.136 206.568,178.848C205.344,189.144 211.248,199.008 221.4,201.024C231.552,203.04 242.928,194.904 243.72,184.536L245.448,163.512C269.064,164.664 290.304,147.24 293.472,123.48L299.016,81.576C300.024,74.088 299.088,66.816 296.712,60.192C294.192,60.912 291.528,61.128 288.648,60.84C243.864,51.696 216.936,56.088 207.72,74.16Z" style="fill:rgb(250,186,140);"/>
                    <g transform="matrix(0.970323,0,0,0.959697,5.20085,6.06486)">
                        <path d="M250.2,1.296C203.616,5.04 181.152,22.464 182.808,53.712C192.24,100.152 189.72,127.8 175.248,136.44C185.616,145.152 195.696,150.192 205.704,150.48C203.688,135.504 202.896,121.32 204.696,106.56C207,91.944 208.872,80.496 210.168,72.144C220.968,53.496 251.568,50.904 302.04,64.512C335.88,70.416 334.656,36.792 331.632,5.184C306.936,33.336 279.504,2.232 250.2,1.296Z" style="fill:rgb(19,40,80);"/>
                    </g>
                    <path d="M307.944,64.584C307.584,71.712 306.504,77.616 304.488,82.8C302.4,88.344 301.104,92.88 296.856,97.632L297.504,83.376C297.576,81.792 298.008,80.208 298.08,78.696C298.512,73.224 298.008,67.896 296.784,62.784C298.512,63.216 300.24,63.72 301.968,64.152C304.056,64.512 306.072,64.656 307.944,64.584Z" style="fill:rgb(15,31,63);"/>
                    <path d="M193.032,74.736C184.176,77.112 179.784,90.936 183.168,105.696C186.552,120.528 196.416,130.536 205.272,128.16C214.128,125.784 218.52,111.96 215.136,97.2C211.752,82.44 201.888,72.36 193.032,74.736Z" style="fill:rgb(250,186,140);"/>
                    <path d="M286.416,71.856C284.04,71.352 273.744,76.32 279.072,80.136C281.952,76.176 284.256,74.304 285.84,74.592C287.496,74.952 288.864,77.472 289.944,82.296C296.352,80.856 288.792,72.288 286.416,71.856Z" style="fill:rgb(19,40,80);fill-rule:nonzero;"/>
                    <path d="M247.104,94.68C250.056,95.112 262.944,90.576 256.32,87.12C252.72,90.792 249.84,92.448 247.824,92.16C245.808,91.872 244.08,89.568 242.712,85.176C234.72,86.544 244.152,94.32 247.104,94.68Z" style="fill:rgb(19,40,80);fill-rule:nonzero;"/>
                    <path d="M250.416,66.888C248.04,66.6 238.104,72.216 243.648,75.672C246.312,71.496 248.4,69.48 250.128,69.696C251.784,69.912 253.296,72.36 254.736,77.04C261,75.168 252.864,67.176 250.416,66.888Z" style="fill:rgb(19,40,80);fill-rule:nonzero;"/>
                    <path d="M283.752,97.632C286.704,97.92 299.16,92.736 292.176,89.568C288.936,93.456 286.272,95.256 284.184,95.04C282.096,94.896 280.224,92.664 278.424,88.344C270.576,90.072 280.728,97.344 283.752,97.632Z" style="fill:rgb(19,40,80);fill-rule:nonzero;"/>
                    <path d="M267.408,105.408C265.032,105.12 255.096,110.808 260.64,114.264C263.232,110.088 265.392,108.072 267.048,108.288C268.704,108.432 270.288,110.952 271.656,115.632C277.992,113.76 269.856,105.768 267.408,105.408Z" style="fill:rgb(19,40,80);fill-rule:nonzero;"/>
                    <path d="M546.912,209.304L649.224,209.304C654.552,209.304 658.8,215.064 658.8,222.048L658.8,308.232C658.8,315.216 654.552,321.048 649.224,321.048L546.912,321.048C541.8,321.048 537.48,315.216 537.48,308.232L537.48,222.048C537.48,215.064 541.8,209.304 546.912,209.304Z" style="fill:rgb(102,102,102);"/>
                    <path d="M506.736,185.688L509.256,185.688L509.256,246.456L506.736,246.456C506.304,246.456 506.016,245.16 506.016,243.576L506.016,188.568C506.016,186.984 506.304,185.688 506.736,185.688Z" style="fill:none;"/>
                    <path d="M200.448,91.008C197.568,88.776 184.68,85.032 190.872,92.448C194.688,91.224 197.568,91.44 199.584,92.952C201.528,94.536 203.04,97.776 204.048,102.744C211.896,106.416 203.328,93.24 200.448,91.008Z" style="fill:rgb(19,40,80);fill-rule:nonzero;"/>
                    <path d="M197.784,103.464C196.56,105.048 196.488,114.696 201.312,112.104C199.368,108.432 198.864,106.056 199.656,104.904C200.52,103.824 202.968,103.752 207,104.688C208.224,99.36 199.008,101.808 197.784,103.464Z" style="fill:rgb(19,40,80);fill-rule:nonzero;"/>
                    <path d="M169.848,175.968C193.392,186.984 213.624,199.44 230.4,213.336C221.832,172.8 203.976,151.848 176.904,150.48C166.032,156.312 163.728,164.736 169.848,175.968Z" style="fill:rgb(255,108,41);"/>
                    <path d="M256.248,162.72C259.632,181.224 251.064,198.072 230.4,213.336C239.904,199.584 244.656,185.616 244.8,171.36C245.232,166.104 245.448,163.512 245.448,163.512C247.392,163.728 250.992,163.44 256.248,162.72Z" style="fill:rgb(255,108,41);"/>
                    <path d="M205.704,150.48C206.424,155.952 206.856,160.2 207,163.368C198.648,155.304 188.568,151.056 176.904,150.48C188.352,147.24 197.928,147.24 205.704,150.48Z" style="fill:rgb(255,108,41);"/>
                    <path d="M169.776,175.752C191.376,192.672 194.76,213.552 181.944,242.64C171.648,263.304 163.584,281.736 157.896,285.624C171.792,296.856 198.936,314.712 233.496,338.904C237.096,348.624 234.72,357.048 226.296,364.104C168.552,353.88 129.672,332.784 109.656,300.744C117.432,230.256 138.168,190.008 169.776,175.752Z" style="fill:rgb(255,176,56);"/>
                    <path d="M235.872,336.672C227.808,350.064 225.792,359.712 229.68,365.616C245.304,370.224 257.616,369.576 266.76,363.672C272.304,362.016 276.192,356.688 278.424,347.76C282.888,347.112 285.048,344.736 284.976,340.632C284.904,339.552 283.104,338.76 279.576,338.184C274.968,336.96 271.08,336.168 267.912,335.808C274.608,337.464 277.56,336.384 276.912,332.496C275.472,332.712 274.248,332.568 273.312,331.92C269.352,331.128 264.744,330.192 259.56,329.256C251.64,330.768 243.72,333.288 235.872,336.672Z" style="fill:rgb(231,186,144);"/>
                    <path d="M237.96,337.104C238.968,348.768 237.6,357.552 233.856,363.384C228.024,367.128 223.128,366.912 219.168,362.736C225.864,350.856 229.248,341.424 229.32,334.368C233.712,333.216 236.592,334.08 237.96,337.104Z" style="fill:rgb(255,108,48);"/>
                    <path d="M431.784,268.2L431.784,268.848C434.52,266.76 437.04,261.936 439.488,254.376C431.28,253.224 428.688,257.904 431.784,268.2Z" style="fill:rgb(221,79,51);"/>
                    <path d="M404.496,256.104C422.784,258.336 421.992,270.936 423.072,274.608C423.792,281.448 422.496,281.664 417.024,283.32C409.392,272.016 404.496,265.824 398.232,262.584C399.168,258.192 401.256,255.96 404.496,256.104Z" style="fill:rgb(255,108,41);"/>
                    <path d="M431.568,191.736L431.136,720L416.664,720L417.096,192.456C417.096,190.224 418.896,188.352 421.128,188.208L427.536,187.92C429.768,187.848 431.568,189.576 431.568,191.736Z" style="fill:rgb(153,153,153);"/>
                    <path d="M422.136,720L416.664,720L417.096,193.68L422.136,193.68L422.136,720Z" style="fill:rgb(138,138,138);"/>
                    <path d="M451.656,179.712L458.208,148.32C458.28,148.032 458.568,147.816 458.928,147.888L461.952,148.536C462.24,148.608 462.456,148.896 462.384,149.184L455.832,180.576C455.76,180.936 455.472,181.08 455.184,181.008L452.088,180.432C451.8,180.36 451.584,180 451.656,179.712Z" style="fill:rgb(102,102,102);"/>
                    <path d="M398.52,165.672L403.92,139.824C404.424,137.304 406.944,135.648 409.464,136.224L454.032,145.512C456.552,146.088 458.208,148.536 457.632,151.128L452.232,176.976C451.728,179.496 449.208,181.152 446.688,180.576L402.12,171.288C399.6,170.784 397.944,168.264 398.52,165.672Z" style="fill:rgb(153,153,153);"/>
                    <path d="M398.52,165.672L400.68,155.448C400.752,155.304 400.824,155.232 400.896,155.16C420.408,163.872 438.264,167.616 454.464,166.392L452.232,176.976C451.728,179.496 449.208,181.152 446.688,180.576L402.12,171.288C399.6,170.784 397.944,168.264 398.52,165.672Z" style="fill:rgb(138,138,138);"/>
                    <path d="M394.56,164.304L399.744,139.536C399.816,139.248 400.104,139.032 400.464,139.104L403.488,139.752C403.848,139.824 403.992,140.112 403.92,140.4L398.736,165.168C398.736,165.456 398.376,165.672 398.088,165.6L394.992,164.952C394.704,164.88 394.56,164.592 394.56,164.304Z" style="fill:rgb(51,51,51);"/>
                    <path d="M355.104,124.848L355.248,124.848L396.576,133.488C398.952,133.992 400.464,136.44 399.888,139.032L394.488,164.88C393.984,167.4 391.608,169.056 389.232,168.552L347.904,159.912L347.76,159.912C347.616,159.84 347.544,159.84 347.4,159.84C337.968,157.824 331.92,148.392 333.936,138.672C335.952,129.024 345.312,122.76 354.744,124.776C354.888,124.776 354.96,124.776 355.104,124.848Z" style="fill:rgb(128,128,128);"/>
                    <path d="M416.16,181.08L433.944,181.08C435.384,181.08 436.536,182.304 436.536,183.744L436.536,191.448C436.536,192.888 435.384,194.04 433.944,194.04L416.16,194.04C414.72,194.04 413.496,192.888 413.496,191.448L413.496,183.744C413.496,182.304 414.72,181.08 416.16,181.08Z" style="fill:rgb(102,102,102);"/>
                    <path d="M423.144,149.976L426.24,149.976C429.408,149.976 432,152.568 432,155.736L432,180.72C432,183.888 429.408,186.48 426.24,186.48L423.144,186.48C419.976,186.48 417.384,183.888 417.384,180.72L417.384,155.736C417.384,152.568 419.976,149.976 423.144,149.976Z" style="fill:rgb(124,124,124);"/>
                    <path d="M424.584,151.92C427.464,151.92 429.768,154.008 429.768,156.672C429.768,159.336 427.464,161.496 424.584,161.496C421.776,161.496 419.472,159.336 419.472,156.672C419.472,154.008 421.776,151.92 424.584,151.92Z" style="fill:rgb(77,77,77);"/>
                    <path d="M442.152,224.28C442.944,226.296 442.008,228.6 439.992,229.392L428.976,234C426.96,234.792 424.656,233.856 423.864,231.84C423,229.824 423.936,227.52 425.952,226.728L436.968,222.192C438.984,221.328 441.288,222.336 442.152,224.28Z" style="fill:rgb(231,186,144);"/>
                    <path d="M443.304,233.424C443.952,235.44 442.8,237.672 440.712,238.248L429.264,241.776C427.248,242.352 425.016,241.2 424.368,239.112C423.792,237.096 424.944,234.864 427.032,234.216L438.408,230.76C440.496,230.112 442.728,231.336 443.304,233.424Z" style="fill:rgb(231,186,144);"/>
                    <path d="M442.944,241.416C443.592,243.504 442.368,245.664 440.352,246.312L428.904,249.768C426.816,250.416 424.656,249.192 424.008,247.176C423.36,245.088 424.584,242.856 426.6,242.28L438.048,238.824C440.136,238.176 442.296,239.328 442.944,241.416Z" style="fill:rgb(231,186,144);"/>
                    <path d="M442.44,249.336C443.088,251.424 441.864,253.656 439.848,254.232L428.4,257.688C426.312,258.336 424.152,257.184 423.504,255.096C422.856,253.008 424.08,250.848 426.096,250.2L437.544,246.744C439.632,246.096 441.792,247.32 442.44,249.336Z" style="fill:rgb(231,186,144);"/>
                    <path d="M329.4,608.472L371.376,634.392C375.264,636.768 376.416,641.88 373.896,645.696L362.664,663.192C360.216,667.008 355.032,668.232 351.216,665.784L309.24,639.864C305.352,637.488 304.2,632.376 306.648,628.56L317.88,611.064C320.4,607.248 325.512,606.096 329.4,608.472Z" style="fill:rgb(0,90,118);"/>
                    <path d="M442.152,224.28C440.28,226.368 438.912,228.384 436.752,228.672C429.552,232.848 424.44,231.408 423,229.896C423.36,230.976 423.432,233.64 424.584,233.856C432.648,235.656 435.744,232.704 440.712,229.032C442.656,228.096 442.656,225.648 442.152,224.28Z" style="fill:rgb(221,79,51);"/>
                    <path d="M417.024,260.928L418.32,247.824L417.096,238.896C419.04,238.464 418.968,238.248 421.056,237.024C422.712,236.016 424.872,234.576 426.6,233.136C432.936,235.656 436.536,234.936 437.976,229.68C435.6,229.248 433.728,227.592 430.344,226.8C428.256,226.296 426.456,226.08 424.08,226.296C409.896,229.968 401.832,241.848 404.424,256.104L404.496,256.104C410.472,256.824 414.432,258.696 417.024,260.928Z" style="fill:rgb(231,186,144);"/>
                    <path d="M415.296,245.664C416.448,245.448 415.944,240.336 416.88,239.256C417.024,239.112 417.024,238.824 417.384,238.824C418.248,238.824 420.408,237.528 421.056,237.024C422.496,235.872 425.088,235.224 426.6,233.136C432.864,235.656 436.464,235.008 437.976,229.896C434.808,232.776 430.92,232.992 426.24,230.544C419.112,231.696 416.088,233.928 414.936,236.52C413.856,239.256 414.792,242.496 415.296,245.664Z" style="fill:rgb(221,79,51);"/>
                    <path d="M230.4,213.336C235.368,206.208 239.04,198.936 241.416,191.664C238.464,196.56 233.064,200.232 227.376,201.096C228.456,204.984 229.464,209.088 230.4,213.336Z" style="fill:rgb(107,128,155);"/>
                    <path d="M168.552,308.736L166.032,308.736L166.032,369.504L168.552,369.504C168.984,369.504 169.272,368.208 169.272,366.624L169.272,311.616C169.272,310.032 168.984,308.736 168.552,308.736Z" style="fill:none;"/>
                    <path d="M208.296,447.336C247.104,423.576 265.032,421.344 262.08,440.784C266.4,459.144 271.44,492.552 277.272,541.224C245.592,559.368 222.624,528.12 208.296,447.336Z" style="fill:rgb(0,139,137);"/>
                    <path d="M271.944,133.416C262.584,137.16 255.96,135.648 252,128.88C263.232,127.368 269.856,128.952 271.944,133.416Z" style="fill:rgb(255,153,204);"/>
                    <path d="M262.08,136.8C264.456,136.944 271.224,135.072 274.536,132.768C276.048,132.192 276.552,131.328 276.48,130.464C276.552,129.96 276.336,129.456 275.76,128.952C273.744,126.216 267.84,123.264 265.32,123.12C262.8,122.904 255.384,124.992 252.36,127.44C246.6,130.176 258.336,136.584 262.08,136.8ZM271.512,132.696C266.904,137.52 255.312,135.936 252.576,129.24C259.056,126.144 270.504,132.912 271.512,132.696Z" style="fill:rgb(19,40,80);fill-rule:nonzero;"/>
                    <path d="M225.576,156.744C229.536,165.024 235.872,170.856 244.584,174.024L244.8,171.36L245.448,163.512C237.6,163.008 231.048,160.704 225.576,156.744Z" style="fill:rgb(221,79,51);"/>
                    <path d="M187.272,428.04C214.704,508.32 238.824,605.664 259.632,720" style="fill:none;"/>
                    <path d="M299.88,445.536C358.488,463.824 378.216,471.6 402.984,485.784C384.696,537.984 354.024,577.872 323.208,607.464" style="fill:none;"/>
                    <path d="M223.056,549.864C211.824,505.656 199.944,465.048 187.272,428.04C180.36,427.176 173.52,425.664 167.04,423.36C165.168,422.712 163.44,422.064 161.64,421.272L162.432,423.36L213.192,555.84C213.84,557.496 214.56,559.008 215.424,560.448C215.496,561.888 215.784,563.4 216.072,564.84L227.88,617.904L248.472,709.992L250.704,720L259.632,720C254.376,691.128 248.904,663.264 243.216,636.552C236.808,606.24 230.04,577.368 223.056,549.864Z" style="fill:rgb(0,106,113);"/>
                    <path d="M385.92,491.328L324.432,604.872C324,605.664 323.568,606.528 323.208,607.464C354.024,577.872 384.696,537.984 402.984,485.784C378.216,471.6 358.488,463.824 299.88,445.536L385.92,491.328Z" style="fill:rgb(0,106,116);"/>
                    <path d="M132.984,245.592C125.28,270.288 123.192,286.2 126.648,293.4" style="fill:none;"/>
                    <path d="M165.96,335.664C196.2,350.496 219.312,358.848 235.296,360.72" style="fill:none;"/>
                    <path d="M126.648,293.4C123.192,286.2 125.28,270.288 132.984,245.592C128.592,245.376 124.272,245.088 120.24,244.944C116.136,258.984 112.896,275.112 110.52,293.4L126.648,293.4Z" style="fill:rgb(255,135,23);"/>
                    <path d="M199.872,350.784C188.28,346.248 176.904,339.696 166.032,335.664L166.032,346.608C167.112,346.968 168.192,347.256 169.272,347.616L169.272,347.976C171.576,348.984 173.88,349.848 176.256,350.784C177.696,351.288 179.136,351.864 180.576,352.368C187.848,354.96 195.624,357.264 203.832,359.352C205.776,359.784 207.72,360.288 209.664,360.72C210.816,361.008 211.896,361.224 212.976,361.44C214.992,361.872 217.08,362.304 219.168,362.736C220.104,361.152 220.896,359.568 221.688,358.056C220.968,357.84 220.176,357.624 219.456,357.408C214.992,356.184 210.168,354.6 204.984,352.656C203.328,352.08 201.6,351.432 199.872,350.784Z" style="fill:rgb(255,135,23);"/>
                    <path d="M221.688,358.056C220.896,359.568 220.104,361.152 219.168,362.736C223.128,366.912 228.024,367.128 233.856,363.384C234.36,362.592 234.864,361.656 235.296,360.72C233.712,360.576 232.128,360.288 230.4,360C229.392,359.784 228.384,359.64 227.376,359.424C225.504,358.992 223.632,358.56 221.688,358.056Z" style="fill:rgb(244,75,42);"/>
                    <path d="M378.936,324.216C355.536,346.104 340.416,351 333.72,338.904C331.056,341.28 328.104,343.44 324.648,345.528C324.432,345.6 324.216,345.744 324.072,345.816C325.728,347.544 327.528,349.2 329.4,350.784C331.488,352.584 333.648,354.312 336.024,355.896C343.872,355.464 350.64,353.736 356.76,350.784C368.856,345.024 378.504,334.656 389.016,321.048C397.224,310.32 406.08,297.576 417.024,283.32L381.96,321.048L378.936,324.216Z" style="fill:rgb(255,135,23);"/>
                    <path d="M397.152,151.92C369.72,156.024 348.984,150.336 335.16,134.856C334.656,136.008 334.224,137.304 333.936,138.672C331.92,148.392 337.968,157.824 347.4,159.84L347.76,159.912L347.904,159.912L389.232,168.552C391.608,169.056 393.984,167.4 394.488,164.88L394.56,164.448L394.56,164.304L397.152,151.92Z" style="fill:rgb(102,102,102);"/>
                    <path d="M611.712,217.935L611.712,225.585C611.712,226.057 611.329,226.44 610.857,226.44L573.471,226.44C572.999,226.44 572.616,226.057 572.616,225.585L572.616,217.935C572.616,217.463 572.999,217.08 573.471,217.08L610.857,217.08C611.329,217.08 611.712,217.463 611.712,217.935Z" style="fill:rgb(26,26,26);"/>
                    <path d="M552.6,230.616L643.608,230.616C648.288,230.616 652.104,235.152 652.104,240.624L652.104,308.304C652.104,313.776 648.288,318.384 643.608,318.384L552.6,318.384C547.992,318.384 544.176,313.776 544.176,308.304L544.176,240.624C544.176,235.152 547.992,230.616 552.6,230.616Z" style="fill:rgb(51,51,51);"/>
                    <path d="M591.408,237.188L591.408,242.116C591.408,242.803 590.851,243.36 590.164,243.36L552.548,243.36C551.861,243.36 551.304,242.803 551.304,242.116L551.304,237.188C551.304,236.501 551.861,235.944 552.548,235.944L590.164,235.944C590.851,235.944 591.408,236.501 591.408,237.188Z"/>
                    <circle cx="559.512" cy="221.76" r="3.384" style="fill:rgb(255,176,56);"/>
                    <path d="M559.512,218.126C561.518,218.126 563.146,219.754 563.146,221.76C563.146,223.766 561.518,225.394 559.512,225.394C557.506,225.394 555.878,223.766 555.878,221.76C555.878,219.754 557.506,218.126 559.512,218.126ZM559.512,218.626C557.782,218.626 556.378,220.03 556.378,221.76C556.378,223.49 557.782,224.894 559.512,224.894C561.242,224.894 562.646,223.49 562.646,221.76C562.646,220.03 561.242,218.626 559.512,218.626Z"/>
                    <circle cx="551.088" cy="221.76" r="3.384" style="fill:rgb(255,176,56);"/>
                    <path d="M551.088,218.126C553.094,218.126 554.722,219.754 554.722,221.76C554.722,223.766 553.094,225.394 551.088,225.394C549.082,225.394 547.454,223.766 547.454,221.76C547.454,219.754 549.082,218.126 551.088,218.126ZM551.088,218.626C549.358,218.626 547.954,220.03 547.954,221.76C547.954,223.49 549.358,224.894 551.088,224.894C552.818,224.894 554.222,223.49 554.222,221.76C554.222,220.03 552.818,218.626 551.088,218.626Z"/>
                    <circle cx="638.28" cy="221.76" r="4.32" style="fill:rgb(255,0,0);"/>
                    <path d="M642.6,221.832C642.6,224.208 640.656,226.08 638.28,226.08C635.976,226.08 634.032,224.208 633.96,221.832L642.6,221.832Z" style="fill:rgb(167,0,0);"/>
                    <circle cx="638.352" cy="219.672" r="1.08" style="fill:white;"/>
                    <circle cx="551.088" cy="221.76" r="2.376" style="fill:rgb(230,230,230);"/>
                    <path d="M551.088,219.134C552.537,219.134 553.714,220.311 553.714,221.76C553.714,223.209 552.537,224.386 551.088,224.386C549.639,224.386 548.462,223.209 548.462,221.76C548.462,220.311 549.639,219.134 551.088,219.134ZM551.088,219.634C549.915,219.634 548.962,220.587 548.962,221.76C548.962,222.933 549.915,223.886 551.088,223.886C552.261,223.886 553.214,222.933 553.214,221.76C553.214,220.587 552.261,219.634 551.088,219.634Z" style="fill:rgb(135,94,30);"/>
                    <circle cx="551.088" cy="221.76" r="0.936" style="fill:rgb(102,102,102);"/>
                    <path d="M551.088,220.574C551.743,220.574 552.274,221.105 552.274,221.76C552.274,222.415 551.743,222.946 551.088,222.946C550.433,222.946 549.902,222.415 549.902,221.76C549.902,221.105 550.433,220.574 551.088,220.574ZM551.088,221.074C550.709,221.074 550.402,221.381 550.402,221.76C550.402,222.139 550.709,222.446 551.088,222.446C551.467,222.446 551.774,222.139 551.774,221.76C551.774,221.381 551.467,221.074 551.088,221.074Z" style="fill:rgb(135,94,30);"/>
                    <circle cx="559.584" cy="221.76" r="2.376" style="fill:rgb(230,230,230);"/>
                    <path d="M559.584,219.144C561.028,219.144 562.2,220.316 562.2,221.76C562.2,223.204 561.028,224.376 559.584,224.376C558.14,224.376 556.968,223.204 556.968,221.76C556.968,220.316 558.14,219.144 559.584,219.144ZM559.584,219.624C558.405,219.624 557.448,220.581 557.448,221.76C557.448,222.939 558.405,223.896 559.584,223.896C560.763,223.896 561.72,222.939 561.72,221.76C561.72,220.581 560.763,219.624 559.584,219.624Z" style="fill:rgb(135,94,30);"/>
                    <circle cx="559.584" cy="221.76" r="0.936" style="fill:rgb(102,102,102);"/>
                    <path d="M559.584,220.584C560.233,220.584 560.76,221.111 560.76,221.76C560.76,222.409 560.233,222.936 559.584,222.936C558.935,222.936 558.408,222.409 558.408,221.76C558.408,221.111 558.935,220.584 559.584,220.584ZM559.584,221.064C559.2,221.064 558.888,221.376 558.888,221.76C558.888,222.144 559.2,222.456 559.584,222.456C559.968,222.456 560.28,222.144 560.28,221.76C560.28,221.376 559.968,221.064 559.584,221.064Z" style="fill:rgb(135,94,30);"/>
                    <g id="_775202216">
                        <circle cx="577.44" cy="221.76" r="3.384" style="fill:rgb(230,230,230);"/>
                        <path d="M580.752,221.4C580.824,221.544 580.824,221.616 580.824,221.76C580.824,223.632 579.312,225.144 577.44,225.144C575.568,225.144 574.056,223.632 574.056,221.76C574.056,221.616 574.056,221.544 574.128,221.4L580.752,221.4Z" style="fill:rgb(186,186,186);"/>
                        <circle cx="577.44" cy="221.76" r="1.944" style="fill:rgb(77,77,77);"/>
                    </g>
                    <g id="_772374208">
                        <circle cx="585.864" cy="221.76" r="3.384" style="fill:rgb(230,230,230);"/>
                        <path d="M589.176,221.4L589.176,221.76C589.176,223.632 587.664,225.144 585.864,225.144C583.992,225.144 582.48,223.632 582.48,221.76L582.48,221.4L589.176,221.4Z" style="fill:rgb(186,186,186);"/>
                        <circle cx="585.864" cy="221.76" r="1.944" style="fill:rgb(77,77,77);"/>
                    </g>
                    <g id="_772372216">
                        <circle cx="594" cy="221.76" r="3.384" style="fill:rgb(230,230,230);"/>
                        <path d="M597.312,221.4C597.384,221.544 597.384,221.616 597.384,221.76C597.384,223.632 595.872,225.144 594,225.144C592.128,225.144 590.616,223.632 590.616,221.76C590.616,221.616 590.616,221.544 590.688,221.4L597.312,221.4Z" style="fill:rgb(186,186,186);"/>
                        <circle cx="594" cy="221.76" r="1.944" style="fill:rgb(77,77,77);"/>
                    </g>
                    <g id="_772370872">
                        <circle cx="606.6" cy="221.76" r="3.384" style="fill:rgb(230,230,230);"/>
                        <path d="M609.912,221.4C609.984,221.544 609.984,221.616 609.984,221.76C609.984,223.632 608.472,225.144 606.6,225.144C604.728,225.144 603.216,223.632 603.216,221.76C603.216,221.616 603.288,221.544 603.288,221.4L609.912,221.4Z" style="fill:rgb(186,186,186);"/>
                        <circle cx="606.6" cy="221.76" r="1.944" style="fill:rgb(77,77,77);"/>
                    </g>
                    <rect x="638.136" y="222.624" width="0.36" height="2.28" style="fill:white;"/>
                    <g id="_772370008">
                        <path d="M116.136,268.272C85.248,265.68 93.672,295.2 99.288,316.368C111.744,363.168 135.576,417.168 151.56,464.4C178.704,544.608 202.68,635.328 173.016,718.128C172.44,719.568 170.856,720.288 169.416,719.712C167.976,719.208 167.328,717.552 167.832,716.184C210.528,597.024 139.752,455.616 101.808,343.224C93.096,317.448 70.272,258.912 116.856,262.8C118.368,263.016 119.448,264.384 119.232,265.896C119.088,267.408 117.648,268.488 116.136,268.272Z"/>
                    </g>
                    <g id="_772366120">
                        <path d="M123.768,283.896L131.256,252.936C131.328,252.648 131.112,252.288 130.824,252.216L127.8,251.496C127.512,251.424 127.224,251.64 127.152,251.928L119.664,282.888C119.592,283.176 119.736,283.464 120.096,283.536L123.12,284.256C123.408,284.328 123.696,284.184 123.768,283.896Z" style="fill:rgb(102,102,102);"/>
                        <path d="M177.408,293.904L183.6,268.416C184.176,265.968 182.592,263.376 180.144,262.8L136.224,252.216C133.704,251.568 131.184,253.152 130.536,255.672L124.416,281.16C123.84,283.68 125.352,286.2 127.872,286.776L171.792,297.36C174.24,298.008 176.832,296.424 177.408,293.904Z" style="fill:rgb(153,153,153);"/>
                        <path d="M177.408,293.904L179.856,283.824C179.856,283.68 179.784,283.536 179.784,283.464C158.544,282.96 140.976,278.712 126.936,270.72L124.416,281.16C123.84,283.68 125.352,286.2 127.872,286.776L171.792,297.36C174.24,298.008 176.832,296.424 177.408,293.904Z" style="fill:rgb(138,138,138);"/>
                        <path d="M120.456,279.72L126.36,255.096C126.504,254.448 126.144,253.8 125.424,253.656L118.8,252C118.152,251.856 117.504,252.288 117.288,252.936L111.384,277.488C111.24,278.208 111.6,278.856 112.248,279L118.944,280.584C119.592,280.728 120.24,280.368 120.456,279.72Z" style="fill:rgb(51,51,51);"/>
                        <path d="M181.512,294.336L187.416,269.928C187.488,269.64 187.272,269.352 186.984,269.28L183.96,268.56C183.672,268.488 183.384,268.632 183.312,268.92L177.408,293.328C177.336,293.688 177.48,293.976 177.84,294.048L180.864,294.768C181.152,294.84 181.44,294.624 181.512,294.336Z" style="fill:rgb(51,51,51);"/>
                        <path d="M233.784,275.76C233.712,275.688 233.64,275.688 233.568,275.688L192.816,265.896C190.512,265.32 188.136,266.904 187.56,269.352L181.368,294.912C180.792,297.36 182.16,299.88 184.464,300.456L225.216,310.32L225.432,310.32C225.504,310.32 225.648,310.392 225.72,310.392C235.08,312.624 244.512,306.72 246.816,297.216C249.12,287.64 243.432,278.064 234.072,275.832C234,275.76 233.856,275.76 233.784,275.76Z" style="fill:rgb(128,128,128);"/>
                        <path d="M184.464,282.168C207.36,297.576 228.312,301.248 247.32,293.184C247.32,294.48 247.176,295.848 246.816,297.216C244.512,306.72 235.08,312.624 225.72,310.392L225.432,310.32L225.216,310.32L184.464,300.456C182.16,299.88 180.792,297.36 181.368,294.912L181.512,294.48L181.512,294.336L184.464,282.168Z" style="fill:rgb(102,102,102);"/>
                    </g>
                    <g id="_772364776">
                        <path d="M146.592,308.664L146.952,720L161.352,720L160.992,309.384C160.992,307.152 159.192,305.28 156.96,305.208L150.624,304.848C148.392,304.776 146.592,306.504 146.592,308.664Z" style="fill:rgb(153,153,153);"/>
                        <path d="M161.352,720L160.992,310.608L155.952,310.608L155.952,720L161.352,720Z" style="fill:rgb(138,138,138);"/>
                        <path d="M161.928,298.08L144.288,298.08C142.848,298.08 141.696,299.304 141.696,300.744L141.696,308.376C141.696,309.816 142.848,310.968 144.288,310.968L161.928,310.968C163.368,310.968 164.592,309.816 164.592,308.376L164.592,300.744C164.592,299.304 163.368,298.08 161.928,298.08Z" style="fill:rgb(102,102,102);"/>
                        <g>
                            <path d="M155.016,267.192L151.92,267.192C148.752,267.192 146.232,269.784 146.232,272.952L146.232,297.72C146.232,300.888 148.752,303.408 151.92,303.408L155.016,303.408C158.184,303.408 160.704,300.888 160.704,297.72L160.704,272.952C160.704,269.784 158.184,267.192 155.016,267.192Z" style="fill:rgb(124,124,124);"/>
                            <path d="M153.576,269.064C150.696,269.064 148.392,271.224 148.392,273.816C148.392,276.48 150.696,278.64 153.576,278.64C156.384,278.64 158.688,276.48 158.688,273.816C158.688,271.224 156.384,269.064 153.576,269.064Z" style="fill:rgb(77,77,77);"/>
                        </g>
                    </g>
                    <g id="_772364704">
                        <path d="M468.504,163.368C488.592,165.816 479.232,241.2 477.792,257.472C469.368,356.04 428.4,627.12 479.016,705.816L486.144,715.104C487.152,716.256 487.08,717.984 485.928,719.064C484.848,720.072 483.048,720 482.04,718.848L474.408,708.768C432.576,643.824 452.016,460.008 459.576,383.76C461.376,365.616 486.36,171.072 468.36,168.912C466.848,168.84 465.624,167.544 465.696,166.032C465.696,164.52 466.992,163.296 468.504,163.368Z"/>
                    </g>
                    <path d="M468.432,166.104C509.832,167.544 399.6,624.744 484.056,716.976" style="fill:none;"/>
                    <path d="M456.48,177.408L461.736,152.424C461.88,151.776 462.528,151.344 463.176,151.488L469.944,152.928C470.592,153 471.024,153.72 470.88,154.368L465.696,179.28C465.552,179.928 464.904,180.36 464.184,180.216L457.488,178.848C456.768,178.704 456.336,178.056 456.48,177.408Z" style="fill:rgb(51,51,51);"/>
                    <path d="M264.456,362.664C251.712,364.248 241.992,363.528 235.44,360.432C235.368,360.504 235.368,360.648 235.296,360.72C234.864,361.656 234.36,362.592 233.856,363.384C232.344,364.32 230.904,365.04 229.608,365.472C229.608,365.544 229.608,365.544 229.68,365.616C242.136,369.288 252.576,369.648 260.856,366.552C262.296,366.048 263.736,365.4 265.032,364.68C265.608,364.32 266.184,364.032 266.76,363.672C270.576,362.52 273.6,359.64 275.832,355.104C272.952,360.072 269.136,362.592 264.456,362.664Z" style="fill:rgb(221,79,51);"/>
                    <path d="M411.264,257.688C412.992,258.192 414.864,259.272 417.024,260.928C422.424,253.944 422.856,246.6 417.096,238.896C412.992,242.784 416.808,256.248 411.264,257.688Z" style="fill:rgb(221,79,51);"/>
                    <path d="M423.36,254.376C423.36,254.592 423.432,254.88 423.504,255.096C424.152,257.184 426.312,258.336 428.4,257.688L431.496,256.752L431.568,257.04L439.56,254.592C440.496,253.8 441.144,253.8 441.72,252.936C442.44,251.928 442.8,250.848 442.512,249.552C441.864,250.272 441.936,251.28 440.496,252.144C435.6,255.096 425.952,257.904 423.36,254.376Z" style="fill:rgb(221,79,51);"/>
                    <path d="M442.944,241.416C442.224,244.44 438.912,246.312 436.824,246.6C429.408,248.904 425.304,247.752 423.864,246.672C424.224,247.752 424.8,249.336 425.88,249.696C429.12,250.848 437.112,248.256 441.648,245.592C443.232,244.656 443.232,242.64 442.944,241.416Z" style="fill:rgb(221,79,51);"/>
                    <path d="M443.232,233.28C441.432,235.296 440.136,237.168 437.976,237.456C430.776,241.632 425.664,240.264 424.224,238.68C424.584,239.832 425.016,241.128 426.096,241.488C429.336,242.64 437.472,240.336 441.936,237.6C443.52,236.664 443.52,234.504 443.232,233.28Z" style="fill:rgb(221,79,51);"/>
                    <path d="M276.984,332.856C277.488,336.168 274.824,337.248 269.064,336.096C265.68,334.8 262.656,334.152 260.136,334.08C261.792,333.36 263.952,333.288 266.544,333.864C273.816,336.312 277.272,335.952 276.984,332.856Z" style="fill:rgb(221,79,51);"/>
                    <path d="M278.424,347.76C275.76,348.48 272.376,348.768 268.056,348.624C269.928,349.704 273.312,349.848 278.064,348.912C278.208,348.552 278.28,348.192 278.424,347.76Z" style="fill:rgb(221,79,51);"/>
                    <path d="M590.688,162.36L592.992,162.36C594.432,162.36 595.656,163.368 595.656,164.592L595.656,178.56C595.728,179.352 595.8,180.216 595.8,181.008C595.8,191.304 585.216,199.656 572.112,199.656L570.24,199.656C570.096,199.584 569.88,199.584 569.736,199.584L569.664,199.584C569.448,199.584 569.304,199.584 569.16,199.512L569.088,199.512C568.872,199.512 568.728,199.512 568.512,199.44C568.296,199.44 568.152,199.44 567.936,199.368L567.864,199.368C567.72,199.368 567.576,199.368 567.36,199.296L567.288,199.296C567.144,199.296 567,199.224 566.856,199.224L566.712,199.224C566.568,199.152 566.352,199.152 566.208,199.08L566.136,199.08C565.992,199.08 565.848,199.008 565.632,199.008L565.56,198.936C565.416,198.936 565.272,198.864 565.128,198.864L564.984,198.792C564.84,198.792 564.696,198.72 564.552,198.72L564.408,198.648C564.336,198.648 564.192,198.576 564.048,198.576L563.904,198.504C563.76,198.504 563.616,198.432 563.472,198.432L563.328,198.36C563.256,198.36 563.112,198.288 562.968,198.216L562.752,198.144C562.68,198.144 562.536,198.072 562.464,198.072L562.248,198C562.176,197.928 562.032,197.928 561.96,197.856L561.744,197.784C561.6,197.784 561.528,197.712 561.384,197.64L561.24,197.64C561.096,197.568 561.024,197.496 560.88,197.496L560.736,197.424C560.664,197.352 560.52,197.28 560.448,197.28L560.16,197.136L559.944,197.064L559.656,196.92L559.44,196.776L559.224,196.704L558.936,196.56L558.72,196.416L558.504,196.344L558.504,196.272C558.432,196.272 558.288,196.2 558.216,196.128L558.072,196.056C557.928,195.984 557.856,195.912 557.784,195.912L557.64,195.768C557.496,195.696 557.424,195.696 557.352,195.624L557.208,195.48C557.064,195.48 556.992,195.408 556.92,195.336L556.776,195.264C556.632,195.192 556.56,195.12 556.488,195.048C551.52,191.592 548.424,186.624 548.424,181.008C548.424,180.216 548.496,179.352 548.568,178.56L548.568,164.592C548.568,163.368 549.792,162.36 551.232,162.36L555.12,162.36C550.944,156.24 548.064,148.752 546.408,139.824C551.808,142.416 556.416,145.656 560.232,149.472C557.568,139.608 557.64,128.664 560.304,116.496C565.848,122.904 569.808,129.744 572.256,137.016C573.696,126.432 578.376,115.92 586.152,105.624C591.12,122.76 589.176,138.672 580.392,153.504C585.576,148.176 592.272,143.928 600.408,140.688C598.536,149.184 595.296,156.384 590.688,162.36Z" style="fill:rgb(207,194,178);"/>
                    <g id="_772377712">
                        <path d="M539.208,159.48L585.288,159.48C586.944,159.48 588.24,160.56 588.24,161.856L588.24,176.904C588.384,177.768 588.456,178.632 588.456,179.496C588.456,190.584 576.72,199.584 562.248,199.584C547.848,199.584 536.112,190.584 536.112,179.496C536.112,178.632 536.184,177.768 536.328,176.904L536.328,161.856C536.328,160.56 537.624,159.48 539.208,159.48Z" style="fill:rgb(151,76,57);"/>
                        <path d="M549.216,110.232C544.896,129.312 546.84,145.728 555.12,159.48L565.272,159.48C565.272,159.192 565.344,158.832 565.344,158.472C580.104,140.256 584.28,120.312 577.8,98.568C569.16,109.656 564.048,120.888 562.464,132.336C559.8,124.488 555.336,117.072 549.216,110.232Z" style="fill:rgb(20,98,118);"/>
                        <path d="M593.496,136.224C591.48,145.296 587.88,153.072 582.768,159.48L563.832,159.48C570.024,149.256 579.96,141.48 593.496,136.224Z" style="fill:rgb(17,137,136);"/>
                        <path d="M533.952,135.288C535.68,144.864 538.92,152.928 543.528,159.48L559.08,159.48C553.968,148.824 545.544,140.76 533.952,135.288Z" style="fill:rgb(17,137,136);"/>
                        <path d="M545.04,194.616C567.288,196.056 577.8,184.392 576.504,159.48L585.288,159.48C586.944,159.48 588.24,160.56 588.24,161.856L588.24,176.904C588.384,177.768 588.456,178.632 588.456,179.496C588.456,190.584 576.72,199.584 562.248,199.584C555.624,199.584 549.648,197.712 545.04,194.616Z" style="fill:rgb(122,61,46);"/>
                    </g>
                    <path d="M44.424,170.568L44.424,57.96L60.768,57.96L60.768,170.568L44.424,170.568Z" style="fill:rgb(237,112,56);"/>
                    <path d="M79.704,170.568L60.84,59.544L76.896,56.808L95.76,167.904L79.704,170.568Z" style="fill:rgb(16,138,141);"/>
                    <path d="M100.152,169.848L81.288,79.416L97.416,77.184L116.208,167.616L100.152,169.848Z" style="fill:rgb(245,174,70);"/>
                    <path d="M85.968,154.656C87.912,154.656 89.496,156.24 89.496,158.256C89.496,160.272 87.912,161.856 85.968,161.856C84.096,161.856 82.512,160.272 82.512,158.256C82.512,156.24 84.096,154.656 85.968,154.656Z" style="fill:rgb(53,170,171);"/>
                    <path d="M83.592,145.368C85.536,145.368 87.048,146.952 87.048,148.968C87.048,150.912 85.536,152.568 83.592,152.568C81.648,152.568 80.136,150.912 80.136,148.968C80.136,146.952 81.648,145.368 83.592,145.368Z" style="fill:rgb(53,170,171);"/>
                    <path d="M69.768,62.496C71.712,62.496 73.296,64.08 73.296,66.096C73.296,68.112 71.712,69.696 69.768,69.696C67.896,69.696 66.312,68.112 66.312,66.096C66.312,64.08 67.896,62.496 69.768,62.496Z" style="fill:rgb(53,170,171);"/>
                    <path d="M71.352,71.208C72.36,71.208 73.224,72.072 73.224,73.08C73.224,74.16 72.36,75.024 71.352,75.024C70.344,75.024 69.48,74.16 69.48,73.08C69.48,72.072 70.344,71.208 71.352,71.208Z" style="fill:rgb(53,170,171);"/>
                </g>
            </g>
        </g>
    </g>
</svg>
